#!OML:ASF F:\VICON\USERDATA\INSTALL\rory3\rory3.ASF
:FULLY-SPECIFIED
:DEGREES
124
root 1.371162831852288 17.86080090243795 48.80846567203737 -3.210316717748289 -2.522000046522222 -3.492765686726969
lfemur -1.5043198415264758 -1.8065289948033199 -16.230364607686372
ltibia 50.892002348185294
lfoot -7.021628695054165 1.4107749368902862
ltoes -7.0130026093285025
rfemur -15.452770310573007 3.877057537864287 27.7043244781529
rtibia 29.713627477635914
rfoot -14.744894578258103 -10.270404247599458
rtoes 2.2045922854887676
lowerback 1.0 -0.4684796782404753 2.309826472048399
upperback 0.25455217579898015 -0.042534127756473916 2.314146948822959
thorax -4.946401246510158 -0.023180152736053006 2.0528609211191062
lowerneck -17.224821681156055 -2.8728395464775853 -1.398838710626837
upperneck 21.16274154602184 -3.635598635900861 0.587726111295777
head 9.554227427785221 -1.77085830860449 0.03596062343498553
lclavicle -1.0897735173127535e-15 -4.157696415068744e-16
lhumerus -25.490826262190293 -3.9954321533814534 83.46578499750217
lradius 26.4890697817608
lwrist 5.283297288749683
lhand -26.71061743441487 23.742743611461893
lfingers nan
lthumb -0.3105023403654327 53.47921654856967
rclavicle -1.2242613011162136e-15 -5.154697610563291e-16
rhumerus -29.571441995071186 -20.299121513844796 -78.84534920771326
rradius 29.138589271108287
rwrist 3.5701956847302485
rhand -17.47464781653811 1.0
rfingers nan
rthumb 9.090564362332653 -7.702263488730151
125
root 1.3717436169260444 17.866238188939924 49.69364838658914 -3.1882008251153446 -2.3313882093621823 -4.070977417571905
lfemur -4.036792617950118 -1.3903809009676857 -14.955572676323666
ltibia 53.624547770792134
lfoot -6.920446097910081 2.667774265436056
ltoes -8.20317090646811
rfemur -13.608841400606732 4.110662176470674 28.289283111949505
rtibia 30.41783567346792
rfoot -15.87843715099039 -11.154548862828666
rtoes 2.371382897606321
lowerback 1.0 -0.25624545719340375 2.878731989142069
upperback 0.25237474586759356 0.33583659259696574 2.342031193540251
thorax -4.984252564762572 0.18142031891502441 1.7421472715365414
lowerneck -17.24108561937561 -2.9313484865406827 -1.3051994960093216
upperneck 21.017868873569352 -3.7229036837805634 0.5841878420649478
head 9.50334487499245 -1.8067583054817202 0.0011903430373965962
lclavicle -1.0877818800940077e-15 -4.1564980862621944e-16
lhumerus -25.942629613161984 -3.9590901295278282 83.5526845062355
lradius 25.65260379735807
lwrist 5.437145159217768
lhand -26.732985712805323 23.67574837366274
lfingers nan
lthumb -0.33613079964794235 53.387431317421616
rclavicle -1.2156150169541524e-15 -5.118963673696092e-16
rhumerus -29.494879653696163 -20.449715694724574 -78.72841457695985
rradius 29.139580731371083
rwrist 3.6286681104464473
rhand -17.483237892510367 1.0
rfingers nan
rthumb 9.113464229334856 -7.6295790555755625
126
root 1.3453907998451378 17.86847133450998 48.975417604964015 -3.2000177064294144 -2.233114679899957 -4.924224632391722
lfemur -6.7354851888729605 -1.0310741188713446 -13.717042901896837
ltibia 55.43923935447722
lfoot -7.724207815930278 2.3792361444174857
ltoes -8.388463671990158
rfemur -11.664455289744117 4.290285379882485 29.00161498757767
rtibia 31.137664281967805
rfoot -16.71235874261875 -11.950815656765688
rtoes 2.0925591523281915
lowerback 1.0 0.013070533132648166 3.5881826099627063
upperback 0.25620147022034245 0.8589534827316697 2.4072286727007475
thorax -5.023883908869155 0.4507900390778134 1.331643241711914
lowerneck -17.233913790476137 -3.004344299730432 -1.2202733459094355
upperneck 20.89867134848207 -3.8305846826454957 0.5911414173678639
head 9.469533678669176 -1.8501031334514013 -0.03424080373870525
lclavicle -1.0866888573694612e-15 -4.1635836017965235e-16
lhumerus -26.46546103717019 -3.7159402567381834 83.66808235114051
lradius 24.746531075523126
lwrist 5.695555456128507
lhand -26.73302943441339 23.69006246888484
lfingers nan
lthumb -0.37793870076116903 53.301169036714434
rclavicle -1.2057148887006612e-15 -5.07531902598631e-16
rhumerus -29.380374665827837 -20.489640135561178 -78.6235021836908
rradius 29.140155279827695
rwrist 4.054813944236949
rhand -17.45487464137012 1.0
rfingers nan
rthumb 9.097547004513247 -7.654553795363701
127
root 1.322425942755213 17.876335726505282 48.78154725382299 -3.138144925225454 -1.8905961106363445 -5.443170296106983
lfemur -9.452767786679175 -0.86166683213112 -13.162349109671576
ltibia 56.19475625656354
lfoot -8.029621833047019 2.722019922494841
ltoes -8.84014933588978
rfemur -9.800267633859486 4.294672022496611 29.29955898364159
rtibia 31.86366176718559
rfoot -16.958423919266913 -12.418034574307978
rtoes 1.5775575927064844
lowerback 1.0 0.19410782464376902 4.023089992480065
upperback 0.2628379451838695 1.2004517653306281 2.41639378223871
thorax -5.032169731094058 0.6272753196301281 0.9424776160477025
lowerneck -17.188673779611086 -3.082900596081021 -1.1787466281082297
upperneck 20.825606777882534 -3.9458527275183126 0.613367806512046
head 9.453843174501316 -1.8961211989310898 -0.06251730861002766
lclavicle -1.0844768574876729e-15 -4.1649557611533456e-16
lhumerus -27.023167424618258 -3.285643484289226 83.81196797465077
lradius 23.863926296773087
lwrist 6.043366321619533
lhand -26.7691732685089 23.662233286239648
lfingers nan
lthumb -0.43426431055954684 53.22837522453706
rclavicle -1.1933768399515632e-15 -5.022377527887718e-16
rhumerus -29.242897369290407 -20.402430750027584 -78.5471150574945
rradius 29.141238205356842
rwrist 3.9658781238459686
rhand -17.47054531584469 1.0
rfingers nan
rthumb 9.109642022326877 -7.5927625282684295
